<?xml version="1.0"?><svg xmlns="http://www.w3.org/2000/svg"  viewBox="0 0 24 24" width="24px" height="24px">    <path d="M 0 2 L 0 3 L 0 22 L 24 22 L 24 2 L 0 2 z M 4 4 L 20 4 A 2 2 0 0 0 22 6 L 22 18 A 2 2 0 0 0 20 20 L 4 20 A 2 2 0 0 0 2 18 L 2 6 A 2 2 0 0 0 4 4 z M 11.765625 6 L 11.765625 7.3300781 C 11.021625 7.4060781 10.426469 7.6747656 9.9804688 8.1347656 C 9.5344688 8.5947656 9.3105469 9.179625 9.3105469 9.890625 C 9.3105469 10.314625 9.3730469 10.675609 9.4980469 10.974609 C 9.6230469 11.273609 9.8040625 11.536672 10.039062 11.763672 C 10.274062 11.990672 10.553906 12.189328 10.878906 12.361328 C 11.202906 12.533328 11.557406 12.705047 11.941406 12.873047 C 12.324406 13.041047 12.591141 13.218203 12.744141 13.408203 C 12.897141 13.597203 12.974609 13.859406 12.974609 14.191406 C 12.974609 14.490406 12.897141 14.723531 12.744141 14.894531 C 12.592141 15.064531 12.383188 15.150391 12.117188 15.150391 C 11.752187 15.150391 11.471438 15.025391 11.273438 14.775391 C 11.076438 14.525391 10.978516 14.160641 10.978516 13.681641 L 9 13.681641 C 9 14.550641 9.2285938 15.252203 9.6835938 15.783203 C 10.139594 16.315203 10.793484 16.629562 11.646484 16.726562 L 11.646484 18 L 12.580078 18 L 12.580078 16.732422 C 13.312078 16.656422 13.891406 16.3915 14.316406 15.9375 C 14.740406 15.4845 14.953125 14.898687 14.953125 14.179688 C 14.953125 13.755688 14.886906 13.390891 14.753906 13.087891 C 14.620906 12.785891 14.436172 12.521922 14.201172 12.294922 C 13.967172 12.067922 13.688234 11.864547 13.365234 11.685547 C 13.042234 11.506547 12.699938 11.333969 12.335938 11.167969 C 11.970938 11.001969 11.706969 10.827531 11.542969 10.644531 C 11.378969 10.461531 11.294922 10.215297 11.294922 9.9042969 C 11.294922 9.5972969 11.366766 9.3566406 11.509766 9.1816406 C 11.652766 9.0066406 11.852328 8.9199219 12.111328 8.9199219 C 12.400328 8.9199219 12.62525 9.0384375 12.78125 9.2734375 C 12.93725 9.5084375 13.015625 9.84325 13.015625 10.28125 L 15 10.28125 C 15 9.48225 14.795719 8.8236875 14.386719 8.3046875 C 13.977719 7.7856875 13.414266 7.4684688 12.697266 7.3554688 L 12.697266 6 L 11.765625 6 z M 4 11 L 4 13 L 7 13 L 7 11 L 4 11 z M 17 11 L 17 13 L 20 13 L 20 11 L 17 11 z"/></svg>