<?xml version="1.0" standalone="no"?>
<!DOCTYPE svg PUBLIC "-//W3C//DTD SVG 20010904//EN"
 "http://www.w3.org/TR/2001/REC-SVG-20010904/DTD/svg10.dtd">
<svg version="1.0" xmlns="http://www.w3.org/2000/svg"
 width="400.000000pt" height="400.000000pt" viewBox="0 0 400.000000 400.000000"
 preserveAspectRatio="xMidYMid meet">

<g transform="translate(0.000000,400.000000) scale(0.100000,-0.100000)"
fill="#000000" stroke="none">
<path d="M2538 3828 c-20 -5 -55 -25 -77 -45 -108 -92 -115 -226 -19 -338 24
-28 99 -102 168 -165 69 -63 157 -148 196 -189 l71 -74 -17 -31 c-29 -50 -33
-91 -15 -152 19 -65 15 -81 -20 -94 -14 -5 -25 -17 -25 -25 0 -28 -41 -97 -86
-145 -82 -88 -222 -134 -334 -111 -83 17 -90 24 -59 58 14 15 37 45 53 66 15
20 34 37 42 37 27 0 98 83 117 136 20 56 20 135 0 142 -7 2 -13 -3 -13 -11 0
-23 -40 -67 -61 -67 -16 0 -19 8 -19 58 -1 121 -54 250 -146 359 l-45 52 40
27 c74 48 114 124 66 124 -9 0 -42 -22 -74 -50 -32 -27 -66 -50 -75 -50 -37 0
-140 137 -205 271 -22 47 -41 92 -41 101 0 34 -45 48 -148 48 -137 0 -224 -29
-374 -126 -89 -57 -141 -105 -195 -182 -37 -50 -46 -73 -47 -106 -1 -38 5 -49
50 -98 28 -31 66 -86 85 -122 19 -36 36 -66 39 -66 3 1 28 33 55 72 74 105
162 180 280 238 55 27 127 54 160 60 33 6 77 15 99 20 40 9 66 4 66 -11 0 -5
-18 -9 -39 -9 -22 0 -43 -5 -46 -10 -4 -6 12 -33 35 -61 l42 -50 59 7 c36 4
59 3 59 -3 0 -15 -66 -31 -185 -43 -60 -6 -144 -20 -185 -29 -41 -10 -78 -17
-81 -15 -4 2 -9 17 -13 34 -3 17 -12 33 -21 36 -18 7 -162 -111 -171 -140 -4
-10 -39 -51 -78 -90 -57 -56 -75 -82 -89 -125 -22 -68 -21 -89 2 -151 l19 -49
-27 14 c-14 8 -44 26 -66 40 -60 37 -169 93 -223 114 -35 14 -53 16 -69 9 -17
-8 -28 -5 -57 17 -20 15 -42 25 -50 22 -11 -4 -23 11 -42 49 -23 46 -26 63
-21 110 5 50 4 56 -16 63 -26 10 -69 -3 -90 -27 -8 -9 -26 -37 -39 -61 -24
-43 -27 -45 -122 -72 -113 -32 -205 -73 -294 -131 -69 -45 -95 -83 -106 -157
-6 -36 -3 -50 16 -77 28 -41 58 -44 135 -14 131 50 376 78 403 46 6 -8 28 -16
48 -18 33 -3 37 -6 35 -30 -1 -23 3 -29 25 -34 56 -11 209 -67 267 -96 121
-61 222 -155 270 -251 26 -54 27 -64 21 -135 -7 -90 -40 -167 -95 -225 -54
-58 -104 -80 -193 -85 -69 -4 -84 -2 -132 22 -67 33 -108 86 -125 161 -19 83
-35 70 -28 -22 13 -194 132 -359 297 -412 36 -11 77 -23 93 -26 23 -5 27 -10
27 -40 0 -39 23 -133 41 -167 46 -87 153 -168 222 -168 48 0 104 19 111 37 6
15 -40 97 -95 169 -41 53 -52 98 -23 92 13 -2 135 -185 192 -287 5 -8 14 -17
22 -19 10 -4 11 3 6 29 -29 137 -28 222 4 261 l17 22 8 -23 c3 -12 11 -21 17
-19 6 2 10 49 9 123 -2 96 2 133 18 185 34 108 100 190 154 190 24 0 67 -55
87 -113 35 -100 28 -174 -31 -336 l-52 -140 -59 -25 c-33 -14 -66 -26 -74 -26
-8 0 -13 -4 -10 -9 3 -4 36 -11 72 -14 37 -4 72 -11 77 -16 10 -10 -3 -39 -40
-89 -30 -40 -72 -43 -111 -7 -42 39 -62 25 -22 -15 41 -41 117 -53 158 -24 51
35 83 152 52 189 -15 18 -7 45 13 45 27 0 97 -109 97 -151 0 -11 -12 -30 -26
-41 -19 -16 -24 -26 -19 -45 7 -31 -48 -90 -94 -99 -33 -7 -81 -48 -81 -71 0
-10 -17 -13 -71 -12 -64 1 -73 -1 -98 -25 -15 -15 -38 -49 -51 -76 l-23 -49
22 -36 c20 -35 21 -41 10 -151 -14 -141 0 -254 40 -328 21 -40 38 -56 86 -83
62 -34 112 -42 133 -21 18 18 15 28 -8 28 -27 0 -101 36 -129 61 -31 29 -65
87 -79 135 -13 46 -15 194 -3 268 5 29 4 59 -2 75 -7 20 -5 36 12 72 33 69 55
89 100 89 23 0 41 -5 44 -13 3 -8 6 -68 6 -135 1 -117 12 -206 25 -220 4 -3
15 -1 26 6 16 10 24 7 48 -13 17 -14 34 -25 38 -25 5 0 29 33 54 72 25 40 80
107 122 149 71 70 240 205 307 245 34 20 83 94 99 149 33 118 26 162 -50 323
-22 45 -38 90 -36 98 2 9 26 24 55 34 94 33 144 64 194 118 27 30 49 57 49 62
0 21 -24 20 -48 -2 -53 -47 -110 -60 -160 -34 -97 50 -149 240 -86 315 15 18
35 31 49 31 31 0 201 61 256 92 104 59 128 75 201 136 43 35 100 89 128 120
51 57 53 73 9 87 -28 9 -24 21 23 66 41 39 42 41 24 55 -18 13 -17 15 20 58
41 47 57 54 79 34 7 -7 46 -45 86 -83 41 -39 115 -109 164 -155 50 -46 136
-128 192 -182 56 -54 108 -98 115 -98 21 0 45 22 53 48 6 21 -27 56 -275 300
-253 248 -281 278 -276 301 20 85 19 91 -6 119 -14 15 -31 44 -37 64 -9 26
-20 39 -42 47 -16 5 -32 17 -35 26 -4 9 -19 22 -35 30 -34 18 -130 20 -147 3
-10 -10 -58 34 -226 202 -117 118 -223 231 -235 250 -28 46 -27 75 5 107 29
29 66 27 114 -7 36 -25 65 -25 90 0 49 49 -6 136 -103 165 -28 8 -53 15 -56
14 -3 -1 -22 -5 -43 -11z m119 -49 c48 -23 79 -60 69 -84 -8 -22 -32 -19 -74
10 -42 28 -80 32 -122 10 -60 -31 -76 -92 -43 -163 10 -22 108 -128 235 -254
210 -208 237 -243 201 -255 -6 -2 -31 15 -55 39 -24 24 -122 117 -218 208 -95
91 -186 182 -201 203 -31 43 -45 108 -35 162 13 66 104 144 170 145 16 0 49
-10 73 -21z m-856 -117 c14 -42 61 -135 79 -157 16 -19 6 -45 -17 -45 -24 0
-137 -42 -187 -68 -45 -24 -53 -21 -87 37 -12 20 -44 62 -72 94 -27 32 -47 63
-44 70 6 16 135 80 202 101 98 30 106 28 126 -32z m-495 -330 c89 -107 123
-177 87 -177 -9 0 -95 99 -147 170 -12 15 -1 45 16 45 7 0 27 -17 44 -38z
m905 -72 c24 -13 24 -29 2 -46 -16 -12 -14 -13 18 -14 43 0 67 -23 107 -105
36 -72 49 -119 58 -206 8 -80 1 -86 -64 -65 -26 8 -58 16 -72 18 -16 2 -30 13
-38 31 -15 31 -56 62 -71 53 -6 -4 -2 -20 10 -41 l20 -34 -21 -21 c-12 -12
-19 -28 -16 -35 4 -11 14 -11 55 2 47 16 54 15 128 -5 76 -20 124 -20 151 1 7
5 15 7 18 4 22 -22 -52 -123 -110 -151 -41 -19 -107 -20 -158 -2 -36 13 -37
13 -74 -25 -80 -82 -203 -105 -291 -54 -23 14 -43 30 -43 34 0 5 19 11 42 14
35 5 51 15 103 71 42 46 70 68 93 72 36 7 49 21 35 35 -18 18 -91 -21 -143
-77 -27 -30 -62 -59 -78 -65 -34 -11 -75 1 -109 33 -32 30 -39 16 -18 -33 36
-80 147 -149 238 -149 46 0 108 21 154 52 23 15 51 28 62 28 11 0 23 5 26 10
10 17 95 13 95 -4 0 -25 -82 -102 -140 -132 -49 -26 -65 -29 -150 -29 -88 0
-100 2 -170 36 -81 39 -200 139 -200 168 0 26 -9 30 -41 19 -38 -13 -70 -5
-103 28 -38 39 -43 70 -15 100 12 13 28 24 36 24 22 0 14 20 -12 30 -14 5 -25
17 -25 27 1 31 27 92 54 128 25 33 134 111 200 145 21 11 24 16 13 18 -9 2
-51 -13 -94 -33 -105 -49 -205 -133 -242 -202 -14 -27 -15 -120 -1 -128 17
-10 11 -25 -10 -25 -27 0 -60 56 -60 102 0 68 41 133 123 196 129 99 267 145
522 172 55 6 118 17 140 25 49 17 43 17 66 5z m-556 -50 c-3 -5 -12 -10 -18
-10 -7 0 -6 4 3 10 19 12 23 12 15 0z m-915 -131 c0 -22 7 -53 15 -68 19 -38
45 -112 45 -131 0 -8 -20 -42 -45 -75 l-45 -60 -108 -1 c-120 -1 -174 -11
-315 -57 -115 -37 -134 -33 -130 29 4 65 22 92 82 128 89 53 136 75 232 106
129 42 136 41 144 -20 5 -34 12 -50 21 -50 12 0 13 10 8 50 -4 29 -2 55 3 62
6 7 13 29 17 48 7 36 53 93 68 84 4 -3 8 -23 8 -45z m2301 -16 c23 -61 -16
-128 -83 -142 -38 -8 -45 -34 -11 -39 24 -4 37 -34 31 -69 -5 -30 21 -71 49
-78 14 -3 32 -13 40 -20 8 -8 23 -15 33 -15 22 0 34 -28 19 -46 -6 -8 -21 -14
-34 -14 -48 0 -172 117 -207 196 -16 38 -18 50 -8 82 20 61 37 82 69 82 32 0
55 23 65 63 8 35 24 35 37 0z m84 19 c6 -4 18 -19 27 -34 10 -14 28 -28 40
-30 17 -2 27 -14 36 -42 7 -22 22 -46 32 -53 41 -29 15 -123 -48 -178 -28 -25
-62 -33 -62 -14 0 6 11 25 25 43 25 33 33 66 16 66 -5 0 -19 -16 -31 -36 -24
-37 -66 -71 -77 -60 -7 7 9 62 29 103 6 13 8 26 5 30 -10 10 -53 -34 -68 -68
-16 -41 -43 -34 -47 11 -2 28 6 50 40 100 34 52 43 75 44 115 1 28 3 51 3 53
2 5 27 1 36 -6z m-2223 -202 c13 -20 -95 -180 -120 -180 -47 1 -45 16 17 100
34 45 61 86 61 92 0 14 31 5 42 -12z m2585 -335 c340 -326 339 -325 312 -325
-23 0 -539 497 -539 518 0 8 4 12 9 10 5 -1 103 -93 218 -203z m-587 155 c22
-31 140 -120 159 -120 19 0 12 -34 -9 -48 -25 -15 -50 0 -120 75 -72 76 -81
89 -74 107 9 23 20 20 44 -14z m-1421 -39 c24 -30 41 -41 72 -46 40 -7 49 -27
15 -33 -16 -4 -156 95 -156 110 0 22 42 3 69 -31z m329 -219 c36 -24 116 -50
179 -58 54 -7 179 11 189 27 3 5 16 9 29 9 19 0 24 -7 30 -39 8 -51 -3 -124
-28 -186 -30 -71 -31 -256 -2 -333 19 -51 19 -54 1 -87 -28 -52 -43 -51 -78 5
-17 28 -35 50 -40 50 -5 0 -14 -11 -20 -25 -15 -33 -36 -32 -44 3 -16 70 -65
152 -108 181 -42 29 -43 31 -50 101 -5 54 -18 96 -55 178 -55 121 -71 192 -45
192 9 0 28 -8 42 -18z m-122 -372 c24 -17 48 -40 54 -50 18 -33 -7 -24 -57 20
-40 35 -52 40 -93 40 -60 0 -124 -41 -183 -117 -23 -30 -49 -65 -59 -77 -29
-37 -32 -8 -4 34 111 168 236 222 342 150z"/>
<path d="M1825 3126 c-17 -17 -25 -35 -24 -58 l1 -33 14 32 c15 35 39 52 69
50 32 -3 24 28 -7 31 -19 2 -36 -5 -53 -22z"/>
<path d="M2254 3056 c-10 -26 4 -48 28 -44 17 2 23 10 23 28 0 18 -6 26 -23
28 -13 2 -25 -3 -28 -12z"/>
<path d="M1902 2961 c-18 -11 -12 -41 10 -54 12 -8 21 -7 32 2 38 32 0 79 -42
52z"/>
<path d="M1582 2934 c-26 -18 -29 -34 -4 -34 24 1 55 26 47 39 -8 15 -17 14
-43 -5z"/>
<path d="M1588 2889 c-22 -12 -23 -29 -3 -29 20 0 65 22 65 32 0 11 -41 10
-62 -3z"/>
<path d="M341 2860 c-61 -34 -84 -51 -77 -58 9 -8 146 62 146 75 0 18 -8 16
-69 -17z"/>
<path d="M380 2803 c-38 -12 -140 -67 -140 -74 0 -12 0 -12 46 10 23 11 62 25
87 32 28 7 47 17 47 25 0 14 -13 16 -40 7z"/>
<path d="M1873 2298 c-5 -46 -7 -86 -3 -91 3 -4 39 11 80 33 40 22 80 40 88
40 8 0 37 -14 64 -30 39 -24 53 -28 64 -19 8 6 14 17 14 24 0 6 8 38 19 69
l19 57 -21 -3 c-15 -2 -25 -14 -32 -40 -17 -60 -26 -64 -83 -32 l-49 27 -48
-26 c-67 -38 -79 -36 -72 10 6 34 -5 63 -22 63 -4 0 -12 -37 -18 -82z"/>
</g>
</svg>
