<?xml version="1.0" standalone="no"?>
<!DOCTYPE svg PUBLIC "-//W3C//DTD SVG 20010904//EN"
 "http://www.w3.org/TR/2001/REC-SVG-20010904/DTD/svg10.dtd">
<svg version="1.0" xmlns="http://www.w3.org/2000/svg"
 width="2542.000000pt" height="668.000000pt" viewBox="0 0 2542.000000 668.000000"
 preserveAspectRatio="xMidYMid meet">

<g transform="translate(0.000000,668.000000) scale(0.100000,-0.100000)"
fill="#000000" stroke="none">
<path d="M14600 6657 c-169 -51 -282 -159 -330 -314 -25 -80 -27 -207 -4 -284
33 -113 56 -139 582 -642 407 -388 503 -484 499 -501 -2 -12 -10 -42 -18 -68
-11 -41 -11 -56 5 -115 29 -111 31 -133 11 -133 -9 0 -44 -26 -78 -57 -135
-126 -121 -117 -155 -98 l-30 18 -82 -72 -83 -71 -108 0 c-75 0 -110 4 -116
13 -17 26 -184 177 -284 257 -214 171 -560 373 -794 462 -38 15 -97 38 -129
50 -33 13 -61 28 -63 35 -2 6 20 29 49 51 137 102 258 263 258 345 0 43 -34
77 -79 77 -48 0 -68 -15 -103 -78 -40 -70 -150 -187 -223 -237 -63 -44 -48
-50 -187 75 -179 161 -414 477 -548 735 -97 187 -130 209 -325 208 -109 0
-153 -6 -315 -45 -360 -86 -843 -398 -1094 -707 -205 -252 -318 -489 -301
-628 6 -55 10 -61 71 -119 l65 -61 -53 -35 c-97 -64 -262 -197 -370 -298
l-106 -100 -361 0 -361 0 0 39 c0 43 -26 71 -65 71 -48 0 -124 -32 -168 -70
l-45 -40 -4438 -2 -4439 -3 -60 -28 c-111 -52 -189 -150 -214 -267 -9 -41 -11
-511 -9 -1891 l3 -1836 40 -79 c47 -91 110 -150 199 -183 l57 -21 12152 2
12152 3 55 28 c76 39 143 108 177 181 l28 61 0 1880 0 1880 -33 67 c-38 78
-100 138 -182 177 l-55 26 -4026 5 -4025 5 -117 110 -117 109 0 85 c0 64 -4
91 -19 115 -10 17 -21 61 -25 101 -11 110 -45 169 -121 208 -18 9 -40 35 -55
64 -38 74 -88 96 -208 90 -75 -3 -102 -9 -143 -31 -28 -14 -56 -26 -61 -26
-16 0 -237 205 -803 744 -264 252 -276 268 -249 336 30 75 94 97 184 65 138
-49 260 17 260 139 -1 141 -115 230 -308 241 -72 4 -100 1 -162 -18z m214
-102 c32 -9 77 -28 100 -43 38 -26 41 -31 41 -72 0 -41 -2 -45 -32 -53 -26 -8
-43 -5 -85 13 -62 26 -155 29 -209 6 -102 -43 -161 -194 -113 -289 30 -58 100
-141 175 -207 41 -36 187 -173 324 -305 138 -132 317 -303 398 -379 81 -76
147 -145 147 -152 0 -13 -80 -54 -106 -54 -8 0 -68 51 -133 113 -66 61 -254
238 -418 392 -456 427 -497 470 -522 537 -33 91 -37 166 -13 245 62 203 239
302 446 248z m-2777 -403 c6 -4 28 -43 49 -87 63 -135 167 -300 296 -471 21
-28 38 -57 38 -65 0 -9 -45 -30 -122 -58 -155 -57 -278 -120 -432 -221 -67
-44 -130 -80 -138 -80 -9 0 -48 41 -88 91 -40 50 -148 168 -241 264 -93 95
-169 179 -169 187 0 32 106 115 284 222 150 91 263 145 401 192 112 38 106 36
122 26z m773 -661 c22 -15 11 -19 -81 -36 -104 -20 -189 -43 -189 -53 0 -4 58
-65 129 -136 128 -128 130 -129 173 -128 41 2 140 27 200 51 24 9 29 8 39 -11
9 -18 8 -24 -6 -34 -33 -25 -183 -73 -306 -99 -197 -41 -379 -91 -594 -162
-427 -141 -665 -280 -916 -534 -115 -116 -117 -117 -128 -92 -10 22 -8 27 12
43 13 11 52 72 86 137 95 182 177 290 351 463 266 266 515 429 805 526 174 58
385 90 425 65z m3170 -388 c33 -22 38 -31 51 -81 10 -38 15 -43 50 -48 72 -12
99 -56 104 -174 2 -41 9 -93 16 -115 34 -112 -47 -245 -178 -290 -56 -19 -68
-10 -41 34 57 94 95 201 70 201 -6 0 -36 -34 -67 -75 -89 -117 -167 -162 -209
-119 -27 26 -18 54 37 114 55 59 117 169 117 208 0 12 -2 22 -4 22 -2 0 -37
-33 -78 -74 -81 -81 -122 -101 -145 -71 -34 48 0 149 82 236 59 64 78 103 71
148 -14 77 -12 84 14 92 44 12 85 9 110 -8z m-5059 -172 c69 -69 162 -172 207
-229 77 -97 81 -104 70 -130 -21 -48 -48 -81 -62 -76 -8 3 -36 33 -62 67 -27
34 -122 137 -211 228 -90 92 -163 172 -163 178 0 18 33 96 44 103 18 12 48
-12 177 -141z m2397 122 c36 -22 72 -55 72 -65 0 -4 -17 -16 -39 -27 -54 -28
-69 -71 -31 -91 15 -8 27 -7 49 5 37 19 103 19 139 1 66 -34 191 -202 272
-363 81 -163 129 -336 145 -520 7 -82 7 -82 -18 -88 -14 -4 -77 5 -144 20 -65
14 -152 29 -193 33 l-75 7 -27 54 c-31 61 -79 115 -121 138 -24 12 -37 13 -78
3 -27 -7 -49 -16 -49 -20 0 -5 20 -25 44 -45 49 -40 76 -87 76 -133 0 -47 -9
-61 -54 -84 -22 -11 -44 -25 -48 -31 -11 -18 21 -66 48 -73 30 -8 108 20 147
52 63 53 207 57 350 10 83 -28 161 -33 236 -15 57 13 143 54 181 86 27 22 31
23 37 7 19 -49 -63 -225 -147 -317 -161 -175 -408 -227 -632 -133 -12 6 -23
-7 -49 -56 -44 -83 -173 -213 -265 -266 -105 -62 -207 -85 -353 -80 -134 6
-222 29 -298 82 -67 46 -63 59 17 62 135 5 234 68 310 196 73 123 90 146 154
198 53 44 144 96 199 114 35 11 9 76 -32 76 -37 0 -133 -31 -173 -56 -82 -51
-173 -155 -216 -246 -47 -98 -96 -148 -172 -173 -66 -22 -140 -16 -214 18 -58
27 -141 97 -151 127 -3 10 -13 21 -22 24 -27 11 -8 -66 43 -171 74 -156 201
-262 379 -319 98 -32 249 -42 351 -25 136 24 292 102 395 199 63 59 69 62 116
62 47 0 51 2 80 44 l32 45 108 3 c59 2 112 0 116 -3 13 -10 -37 -106 -94 -182
-238 -317 -671 -437 -1102 -306 -179 55 -379 174 -535 319 -54 50 -73 75 -81
108 -13 47 -20 51 -46 22 -49 -54 -205 -66 -291 -22 -48 24 -110 91 -130 138
-40 97 13 194 123 223 56 15 62 29 28 58 -23 20 -37 24 -79 22 -46 -3 -52 -1
-63 22 -18 38 -18 126 2 199 63 243 371 543 754 732 120 59 131 66 91 62 -65
-8 -145 -37 -273 -97 -368 -174 -629 -401 -757 -659 -73 -148 -78 -278 -14
-383 19 -32 34 -66 34 -76 0 -28 -38 -24 -91 10 -100 64 -134 133 -134 276 0
93 3 106 35 180 66 150 158 264 323 401 294 246 675 414 1217 539 211 48 418
111 480 145 44 24 73 25 108 3z m2444 -68 c-2 -11 -27 -45 -56 -75 -74 -77
-101 -137 -101 -225 0 -58 6 -81 32 -135 17 -36 36 -81 42 -101 13 -41 52 -80
97 -98 39 -15 99 -75 89 -90 -3 -6 -21 -17 -38 -25 -18 -7 -53 -32 -79 -55
-25 -22 -52 -41 -60 -41 -7 0 -31 25 -53 56 -22 31 -75 104 -117 162 -43 59
-78 112 -78 119 0 7 9 30 20 50 27 51 25 77 -10 147 -33 65 -38 117 -16 170
14 35 69 94 112 123 33 21 117 40 174 39 39 -1 45 -4 42 -21z m-1974 -76 c265
-124 550 -321 786 -542 l110 -102 74 -5 75 -5 -84 -58 c-46 -31 -92 -57 -103
-57 -10 0 -69 49 -131 108 -198 191 -411 349 -633 470 -86 46 -112 67 -152
117 -27 33 -69 80 -94 105 -25 24 -46 47 -46 52 0 8 47 -12 198 -83z m-2968
-292 c-3 -2 -51 -35 -107 -75 -128 -91 -264 -205 -375 -315 l-87 -87 -389 0
c-315 0 -392 3 -401 14 -6 7 -14 34 -17 60 l-7 46 378 0 378 0 101 98 c116
112 212 192 346 286 l94 67 45 -45 c25 -25 43 -47 41 -49z m5605 -334 c83 -75
220 -202 305 -282 86 -81 257 -240 380 -356 307 -285 390 -368 390 -387 0 -28
-50 -78 -77 -78 -18 0 -69 43 -201 173 -97 94 -323 307 -502 472 -393 363
-540 504 -540 518 0 17 62 77 80 77 9 0 83 -62 165 -137z m-1000 -9 c55 -75
104 -143 110 -152 5 -10 17 -29 27 -43 35 -54 33 -72 -12 -112 -52 -48 -60
-44 -146 80 -37 54 -96 135 -131 181 -34 46 -63 92 -63 102 0 23 67 80 95 80
14 0 49 -39 120 -136z m-6095 -18 c0 -58 48 -185 102 -271 31 -50 66 -112 76
-140 l20 -50 -62 -152 c-33 -84 -66 -156 -71 -161 -6 -6 -50 -13 -99 -16 -243
-19 -584 -132 -840 -279 -54 -31 -107 -57 -117 -57 -31 0 -89 41 -95 67 -4 14
-4 63 -1 109 7 100 27 136 119 216 189 164 399 293 615 379 101 40 112 37 129
-29 17 -66 79 -162 104 -162 27 0 33 31 13 76 -26 61 -21 326 8 400 28 76 99
126 99 70z m-202 -8 c-2 -7 -10 -34 -18 -60 l-14 -48 -4356 0 c-2957 0 -4369
-4 -4400 -11 -57 -13 -105 -49 -130 -99 -20 -39 -20 -57 -18 -1879 l3 -1839
31 -39 c16 -21 50 -48 74 -61 l44 -22 12084 0 c9513 0 12093 3 12126 12 54 17
109 73 125 129 9 34 11 457 9 1854 l-3 1810 -23 40 c-27 47 -76 83 -129 96
-22 5 -1710 9 -3913 9 l-3875 0 -65 60 -65 59 3967 1 3967 0 58 -21 c69 -26
140 -90 173 -156 l25 -48 0 -1870 0 -1870 -24 -48 c-28 -58 -88 -119 -145
-150 l-41 -22 -12144 -3 -12143 -2 -59 26 c-68 31 -130 93 -162 162 l-22 47
-3 1829 c-3 2013 -6 1898 58 1991 39 57 88 94 153 116 50 18 255 18 4455 19
3518 0 4403 -3 4400 -12z m7016 -53 l59 -55 -174 0 c-194 0 -195 1 -66 59 36
16 68 34 71 40 15 24 53 8 110 -44z m-6411 -428 c9 -8 17 -19 17 -24 0 -6 -20
-52 -44 -104 -24 -52 -60 -140 -81 -196 -28 -76 -43 -103 -55 -103 -24 0 -70
38 -70 58 0 20 42 132 107 284 53 124 65 132 126 85z m-8058 -1092 c346 -550
653 -1039 683 -1087 31 -49 58 -88 61 -88 3 0 67 98 142 218 75 119 307 487
514 817 208 330 457 727 554 882 97 155 179 282 182 282 3 1 16 -81 27 -181
52 -437 321 -2756 324 -2787 l3 -35 -225 -37 c-124 -20 -227 -35 -229 -33 -2
2 -49 388 -104 858 -56 470 -103 853 -106 851 -4 -2 -247 -386 -541 -854 -294
-468 -537 -850 -540 -851 -3 0 -164 253 -359 563 -195 309 -438 694 -540 856
-102 161 -186 289 -188 285 -1 -5 -48 -391 -103 -858 -55 -467 -101 -850 -103
-851 -1 -2 -103 14 -227 34 l-225 37 2 34 c3 38 329 2859 339 2928 5 35 9 41
19 30 7 -7 295 -463 640 -1013z m4660 997 c306 -70 567 -213 785 -432 331
-330 494 -769 459 -1231 -53 -707 -556 -1277 -1262 -1431 -88 -19 -132 -22
-312 -22 -237 0 -326 14 -516 80 -424 146 -786 494 -949 909 -86 220 -116 399
-107 640 9 250 61 449 173 665 228 438 630 736 1124 831 134 26 473 21 605 -9z
m1855 -186 c0 -5 -11 -37 -24 -70 -19 -47 -25 -83 -26 -156 -4 -143 -6 -136
50 -172 27 -18 52 -41 56 -50 14 -45 88 -35 208 28 48 25 92 44 99 42 12 -3
120 -113 777 -788 195 -200 421 -432 502 -515 l148 -150 0 578 c0 317 2 577 4
577 3 0 40 -13 84 -29 74 -28 235 -77 330 -101 l42 -11 0 -1077 0 -1077 -163
165 c-90 91 -343 350 -562 575 -219 226 -559 574 -754 775 -196 201 -393 403
-438 450 l-83 85 0 -932 0 -933 -22 -5 c-13 -2 -108 -19 -213 -35 -104 -17
-198 -33 -207 -36 -17 -5 -18 73 -18 1538 l0 1543 105 -105 c58 -58 105 -109
105 -114z m10116 203 c655 -91 1184 -592 1326 -1255 30 -144 33 -448 5 -589
-64 -322 -199 -582 -421 -814 -229 -237 -505 -386 -846 -458 -132 -28 -459
-25 -597 5 -443 96 -814 358 -1041 734 -202 335 -272 732 -197 1126 54 285
210 575 427 796 l108 110 67 -64 c38 -35 104 -99 149 -141 44 -42 90 -80 102
-83 52 -17 180 74 215 154 37 82 32 92 -100 217 -95 91 -115 115 -103 123 55
37 296 113 430 135 94 16 373 18 476 4z m-7868 -92 c-2 -11 -9 -11 -38 2 l-35
15 35 5 c36 6 44 2 38 -22z m12028 -202 c313 -387 336 -415 578 -713 133 -163
243 -289 247 -285 5 5 51 101 102 213 100 218 108 235 222 485 210 458 245
530 255 527 13 -3 404 -173 409 -178 4 -3 -51 -128 -140 -319 -20 -44 -57
-125 -82 -180 -25 -55 -83 -183 -130 -285 -117 -255 -653 -1427 -747 -1635
-43 -93 -94 -206 -115 -250 -20 -44 -44 -97 -52 -118 -8 -20 -16 -37 -17 -37
0 0 -104 18 -231 40 -126 22 -233 40 -237 40 -10 0 -8 3 286 642 l256 558
-217 269 c-120 147 -317 391 -438 541 -121 149 -282 348 -357 442 -76 93 -138
171 -138 173 0 11 355 304 361 297 3 -4 87 -106 185 -227z m-1936 -1040 l0
-1265 691 0 c549 0 690 -3 686 -13 -2 -6 -37 -112 -78 -234 l-74 -223 -847 0
-848 0 0 1463 0 1464 208 35 c114 20 219 36 235 37 l27 1 0 -1265z m-4994
1231 c183 -62 348 -185 451 -336 99 -146 143 -282 150 -466 8 -198 -29 -345
-129 -511 -102 -170 -297 -316 -503 -379 -87 -27 -100 -28 -357 -32 l-268 -4
-2 -576 -3 -576 -220 -38 c-121 -20 -226 -37 -233 -37 -10 -1 -12 242 -10
1200 l3 1200 120 50 c287 118 579 285 820 468 44 33 87 61 96 61 8 0 47 -11
85 -24z m-4086 -309 c0 -5 -10 -7 -22 -3 -13 3 -30 6 -38 6 -10 1 -8 7 10 21
23 20 25 20 37 3 7 -10 13 -22 13 -27z m2250 -398 c0 -34 -57 -246 -98 -369
-79 -232 -162 -416 -300 -669 -156 -288 -235 -411 -264 -411 -25 0 -91 45
-206 142 -51 43 -94 78 -95 78 -2 0 -73 -36 -158 -79 -85 -43 -164 -82 -177
-86 -18 -5 -37 2 -78 29 -69 46 -204 173 -215 204 -6 15 -4 46 6 89 20 86 61
325 75 436 12 99 14 331 4 515 -8 143 -7 144 86 87 202 -123 429 -185 681
-185 258 -1 446 55 649 194 73 50 90 55 90 25z m219 -171 c232 -586 95 -1245
-354 -1693 -293 -294 -643 -447 -1051 -462 -305 -11 -564 49 -828 195 -618
339 -931 1049 -769 1747 9 39 17 71 17 72 1 1 29 -2 62 -7 32 -5 138 -16 234
-25 96 -9 176 -18 177 -19 2 -2 -6 -28 -16 -58 -28 -83 -51 -230 -51 -333 0
-466 312 -905 749 -1054 450 -154 954 1 1245 382 108 142 170 282 210 473 16
79 38 149 66 209 96 206 194 480 219 611 24 120 20 114 42 73 10 -20 32 -70
48 -111z"/>
<path d="M11733 4962 c-103 -89 -262 -260 -321 -344 -75 -110 -75 -119 -1 -65
133 98 352 224 469 271 35 14 40 19 34 39 -13 46 -88 157 -104 157 -5 0 -40
-26 -77 -58z"/>
<path d="M12384 4646 c-38 -17 -90 -81 -109 -136 -26 -74 -15 -220 17 -220 4
0 8 12 7 28 -2 40 19 122 42 158 11 18 36 47 56 65 34 29 40 31 94 26 51 -4
59 -3 64 14 15 48 -24 79 -98 79 -23 -1 -56 -7 -73 -14z"/>
<path d="M13550 4573 c-32 -12 -60 -47 -60 -75 0 -38 40 -78 78 -78 78 0 110
85 51 134 -31 26 -41 29 -69 19z"/>
<path d="M12613 4198 c-66 -17 -84 -89 -34 -138 36 -36 73 -46 112 -29 54 22
69 104 26 146 -20 21 -69 31 -104 21z"/>
<path d="M11782 4030 c-12 -5 -49 -28 -82 -50 -54 -37 -59 -42 -47 -60 6 -11
17 -20 24 -20 13 0 126 61 157 85 19 14 19 15 1 35 -20 22 -21 22 -53 10z"/>
<path d="M11789 3898 c-41 -21 -85 -50 -99 -64 -24 -24 -24 -24 -5 -44 20 -20
20 -19 115 35 52 30 99 56 104 58 12 4 -10 43 -27 50 -8 3 -47 -13 -88 -35z"/>
<path d="M8580 3594 c-110 -89 -244 -216 -261 -247 -11 -20 5 -9 146 99 44 33
115 84 157 112 84 57 102 78 87 105 -6 9 -13 17 -17 17 -4 0 -54 -39 -112 -86z"/>
<path d="M8649 3466 c-124 -76 -290 -207 -278 -220 3 -3 61 26 130 66 68 39
156 86 196 105 39 18 73 38 76 45 6 17 -14 58 -27 57 -6 0 -50 -24 -97 -53z"/>
<path d="M5865 3230 c-442 -58 -817 -386 -931 -814 -100 -377 2 -775 270
-1055 288 -299 695 -413 1095 -306 406 109 717 447 802 870 20 100 18 319 -4
425 -54 255 -211 504 -419 660 -234 177 -530 257 -813 220z"/>
<path d="M17939 3229 c-217 -32 -400 -112 -566 -249 -185 -153 -315 -363 -375
-609 -26 -103 -31 -348 -10 -446 51 -237 154 -427 318 -590 272 -268 663 -378
1034 -290 421 100 754 449 835 877 18 95 21 285 6 379 -57 350 -284 659 -601
819 -194 97 -439 139 -641 109z"/>
<path d="M14880 2745 l0 -495 223 0 c160 0 237 4 276 15 315 83 463 424 314
720 -32 62 -132 162 -199 197 -93 50 -148 58 -391 58 l-223 0 0 -495z"/>
<path d="M13444 2685 l-51 -23 -42 -119 c-24 -65 -46 -121 -50 -125 -3 -3 -66
32 -140 78 -73 46 -139 84 -146 84 -7 0 -88 -33 -179 -74 -90 -41 -167 -72
-168 -70 -2 2 -1 34 3 71 13 111 14 107 -38 126 -25 9 -47 16 -48 15 -4 -7
-64 -383 -61 -386 2 -1 110 44 240 102 226 101 239 105 264 92 15 -8 90 -58
167 -110 76 -53 142 -93 146 -88 6 7 40 96 130 345 21 59 35 107 31 106 -4 0
-30 -11 -58 -24z"/>
<path d="M12881 2264 c-46 -33 -65 -119 -35 -162 51 -73 161 34 133 130 -14
50 -53 63 -98 32z"/>
<path d="M12746 1971 c-36 -38 -47 -108 -22 -146 23 -35 64 -33 101 5 36 38
47 120 20 150 -26 29 -66 25 -99 -9z"/>
<path d="M25238 4074 c-87 -47 -50 -184 49 -184 21 0 48 8 59 18 101 81 5 228
-108 166z m87 -10 c8 -4 23 -20 31 -36 12 -24 13 -36 4 -64 -20 -58 -82 -73
-125 -29 -63 62 6 161 90 129z"/>
<path d="M25250 3991 c0 -28 5 -51 10 -51 6 0 10 9 10 20 0 12 7 20 16 20 9 0
18 -9 21 -20 3 -11 12 -20 20 -20 8 0 11 5 7 11 -4 7 -7 28 -8 48 -1 34 -3 36
-38 39 l-38 3 0 -50z m60 19 c0 -5 -9 -10 -20 -10 -11 0 -20 5 -20 10 0 6 9
10 20 10 11 0 20 -4 20 -10z"/>
</g>
</svg>
